<?xml version="1.0" encoding="iso-8859-1"?>
<!-- Generator: Adobe Illustrator 17.1.0, SVG Export Plug-In . SVG Version: 6.00 Build 0)  -->
<!DOCTYPE svg PUBLIC "-//W3C//DTD SVG 1.1//EN" "http://www.w3.org/Graphics/SVG/1.1/DTD/svg11.dtd">
<svg version="1.1" id="Capa_1" xmlns="http://www.w3.org/2000/svg" xmlns:xlink="http://www.w3.org/1999/xlink" x="0px" y="0px"
	 viewBox="0 0 254.309 254.309" style="enable-background:new 0 0 254.309 254.309;" xml:space="preserve">
<g>
	<path d="M246.809,0.046h-34.766c-4.142,0-7.5,3.357-7.5,7.5s3.358,7.5,7.5,7.5h16.66l-77.07,77.069
		c-6.807-4.696-15.048-7.454-23.925-7.454c-9.161,0-17.642,2.94-24.571,7.915l-77.53-77.53h16.66c4.142,0,7.5-3.357,7.5-7.5
		s-3.358-7.5-7.5-7.5H7.5c-4.142,0-7.5,3.357-7.5,7.5v34.766c0,4.143,3.358,7.5,7.5,7.5s7.5-3.357,7.5-7.5V25.653l77.674,77.673
		c-4.549,6.738-7.208,14.853-7.208,23.577c0,8.853,2.743,17.075,7.416,23.871L15,228.655v-16.658c0-4.143-3.358-7.5-7.5-7.5
		s-7.5,3.357-7.5,7.5v34.766c0,4.143,3.358,7.5,7.5,7.5h34.766c4.142,0,7.5-3.357,7.5-7.5s-3.358-7.5-7.5-7.5h-16.66l77.824-77.823
		c6.874,4.847,15.246,7.705,24.277,7.705c23.292,0,42.242-18.949,42.242-42.241c0-9.008-2.844-17.36-7.667-24.224l77.026-77.026
		v16.658c0,4.143,3.358,7.5,7.5,7.5s7.5-3.357,7.5-7.5V7.546C254.309,3.403,250.951,0.046,246.809,0.046z M127.708,154.145
		c-15.021,0-27.242-12.221-27.242-27.241c0-15.021,12.221-27.242,27.242-27.242c6.792,0,13.006,2.504,17.782,6.631
		c0.31,0.516,0.678,1.006,1.123,1.45c0.464,0.464,0.978,0.846,1.519,1.163c4.238,4.804,6.817,11.104,6.817,17.998
		C154.949,141.924,142.729,154.145,127.708,154.145z"/>
	<path d="M246.809,204.497c-4.142,0-7.5,3.357-7.5,7.5v16.658l-56.24-56.239c-2.929-2.928-7.678-2.928-10.606,0
		c-2.929,2.93-2.929,7.678,0,10.607l56.24,56.239h-16.66c-4.142,0-7.5,3.357-7.5,7.5s3.358,7.5,7.5,7.5h34.766
		c4.142,0,7.5-3.357,7.5-7.5v-34.766C254.309,207.854,250.951,204.497,246.809,204.497z"/>
</g>
<g>
</g>
<g>
</g>
<g>
</g>
<g>
</g>
<g>
</g>
<g>
</g>
<g>
</g>
<g>
</g>
<g>
</g>
<g>
</g>
<g>
</g>
<g>
</g>
<g>
</g>
<g>
</g>
<g>
</g>
</svg>
